<?xml version="1.0" encoding="utf-8"?>
<!DOCTYPE svg PUBLIC "-//W3C//DTD SVG 1.1//EN" "http://www.w3.org/Graphics/SVG/1.1/DTD/svg11.dtd">
<svg version="1.1" xmlns="http://www.w3.org/2000/svg" xmlns:xlink="http://www.w3.org/1999/xlink" width="300" height="300" viewBox="0 0 300 300">
	<desc>
		Hello World !
	</desc>
	<defs>
		<g id="cloud">
			<path fill="#fff" d="M 5 60 Q 5 45 20 40 A 10 10 0 0 1 35 30 C 40 12 60 12 70 30 A 30 30 0 0 1 100 60 Z" />
		</g>
		<g id="car-wheel">
			<circle r="12" stroke="#396180" stroke-width="3" fill="#98c8e7" cx="0" cy="0" />
			<use xlink:href="#car-wheel-spokes" />
		</g>
		<g id="car-wheel-spokes">
			<g>
				<use xlink:href="#car-wheel-spoke" />
			</g>
			<g transform="rotate(45)">
				<use xlink:href="#car-wheel-spoke" />
			</g>
			<g transform="rotate(90)">
				<use xlink:href="#car-wheel-spoke" />
			</g>
			<g transform="rotate(135)">
				<use xlink:href="#car-wheel-spoke" />
			</g>
		</g>
		<g id="car-wheel-spoke">
			<line x1="-12" y1="0" x2="12" y2="0" stroke="#396180" stroke-width="1" />
		</g>
		<g id="tree">
			<path fill="#64a0cf" d="M -7 0 v -30 h -23 l 20 -20 h -10 l 20 -20 l 20 20 h -10 l 20 20 h -23 v 30 Z" />
		</g>
	</defs>
	<g class="svg-sky">
		<rect x="-300" y="0" width="600" height="300" fill="#90dfff" />
		<g transform="translate(60 30) scale(0.7 0.7)">
			<use xlink:href="#cloud" />
		</g>
		<g transform="translate(200 50)">
			<use xlink:href="#cloud" />
		</g>
		<g transform="translate(-240 30) scale(0.7 0.7)">
			<use xlink:href="#cloud" />
		</g>
		<g transform="translate(-100 50)">
			<use xlink:href="#cloud" />
		</g>
	</g>
	<g transform="translate(0 245)">
		<g class="svg-road">
			<rect x="-300" y="0" width="600" height="55" fill="#64a0cf" />
			<rect x="0" y="26" width="40" height="3" fill="#eee" />
			<rect x="60" y="26" width="40" height="3" fill="#eee" />
			<rect x="120" y="26" width="40" height="3" fill="#eee" />
			<rect x="180" y="26" width="40" height="3" fill="#eee" />
			<rect x="240" y="26" width="40" height="3" fill="#eee" />
			<rect x="-60" y="26" width="40" height="3" fill="#eee" />
			<rect x="-120" y="26" width="40" height="3" fill="#eee" />
			<rect x="-180" y="26" width="40" height="3" fill="#eee" />
			<rect x="-240" y="26" width="40" height="3" fill="#eee" />
			<rect x="-300" y="26" width="40" height="3" fill="#eee" />
			<g transform="translate(50 5) scale(1 1.5)">
				<use xlink:href="#tree" />
			</g>
			<g transform="translate(250 5)">
				<use xlink:href="#tree" />
			</g>
			<g transform="translate(-250 5) scale(1 1.5)">
				<use xlink:href="#tree" />
			</g>
			<g transform="translate(-50 5)">
				<use xlink:href="#tree" />
			</g>
		</g>
	</g>
	<g transform="translate(75 190)">
		<path class="svg-car-frame" fill="#98c8e7" stroke="#396180" stroke-width="2" d="M 15 65 Q 5 40 55 35 Q 60 25 60 15 Q 145 5 135 65 Z" />
		<g transform="translate(45 65)">
			<use class="svg-car-wheel" xlink:href="#car-wheel" />
		</g>
		<g transform="translate(110 65)">
			<use class="svg-car-wheel" xlink:href="#car-wheel" />
		</g>
	</g>
</svg>