<?xml version="1.0" encoding="utf-8"?>
<!DOCTYPE svg PUBLIC "-//W3C//DTD SVG 1.1//EN" "http://www.w3.org/Graphics/SVG/1.1/DTD/svg11.dtd">
<svg version="1.1" xmlns="http://www.w3.org/2000/svg" xmlns:xlink="http://www.w3.org/1999/xlink" viewBox="0 0 360 480">
	<defs>
		<rect id="entity" x="-50" y="-25" width="100" height="50" rx="15" ry="15" fill="#2a8dd4" stroke="#dfebf7" stroke-width="5" />
		<rect id="entity-arrow" x="-7" y="0" width="14" height="400" fill="#b8d0e6" />
		<marker id="arrow-req" markerWidth="4" markerHeight="3" refX="2" refY="1.5" orient="auto">
			<path d="M 0 0 L 4 1.5 0 3 1 1.5 Z" fill="#ffc600" />
		</marker>
		<marker id="arrow-res" markerWidth="4" markerHeight="3" refX="2" refY="1.5" orient="auto">
			<path d="M 0 0 L 4 1.5 0 3 1 1.5 Z" fill="#66cc00" />
		</marker>
		<line id="line-req" x1="10" y1="10" x2="208" y2="30" fill="none" stroke="#ffc600" stroke-width="6" marker-end="url(#arrow-req)" />
		<line id="line-res" x1="205" y1="10" x2="20" y2="30" fill="none" stroke="#66cc00" stroke-width="6" marker-end="url(#arrow-res)" />
	</defs>
	<text text-anchor="middle" x="180" y="41" style="fill:#999;font-family:'microsoft yahei';font-size:15px;">Iframe Script 流</text>
	<g transform="translate(65 35)">
		<use xlink:href="#entity-arrow" x="0" y="25" />
		<use xlink:href="#entity" x="0" y="0" />
		<text text-anchor="middle" x="0" y="6" style="fill:#fff;font-family:Verdana;font-size:20px;">Browser</text>
	</g>
	<g transform="translate(295 35)">
		<use xlink:href="#entity-arrow" x="0" y="25" />
		<use xlink:href="#entity" x="0" y="0" />
		<text text-anchor="middle" x="0" y="6" style="fill:#fff;font-family:Verdana;font-size:20px;">Server</text>
	</g>
	<g transform="translate(65 60)">
		<use xlink:href="#line-req" />
		<line x1="213" y1="35" x2="213" y2="390" stroke="#66cc00" stroke-width="6" stroke-dasharray="10 5" />
		<use xlink:href="#line-res" y="70" />
		<use xlink:href="#line-res" y="180" />
		<use xlink:href="#line-res" y="205" />
		<use xlink:href="#line-res" y="255" />
	</g>
</svg>